<svg width="83" height="104" viewBox="0 0 83 104" fill="none" xmlns="http://www.w3.org/2000/svg">
<path d="M45.624 96.3138C45.9716 95.9205 46.314 95.5273 46.6641 95.1259C46.7147 95.0706 46.7367 94.9975 46.7744 94.9358C46.8236 94.8643 46.8703 94.8041 46.9053 94.7131C46.9575 94.5748 46.9887 94.4254 46.9974 94.2728C47.0026 94.2386 47.0182 94.2191 47.0182 94.1866C47.2957 88.2586 50.0814 83.8175 54.6775 82.2673C57.1442 81.4288 57.7005 82.5435 59.5019 80.4944C60.2359 79.651 59.7327 78.2714 58.8262 78.1365C50.5016 76.895 43.6165 84.7405 43.8201 95.2429C43.8408 96.3901 44.8861 97.1523 45.624 96.3138Z" fill="#18414F"/>
<path d="M55.7785 62.1238C47.4785 60.5849 39.9255 66.365 38.9062 75.0344C37.8804 83.707 43.7695 91.9912 52.0695 93.5285C60.3643 95.0722 81.6551 91.8385 82.6809 83.1675C83.7042 74.49 64.076 63.6675 55.7824 62.1238" fill="#32505B"/>
<path d="M17.854 97.3554C18.2029 96.9638 18.5453 96.564 18.8967 96.1724C18.9473 96.1058 18.9681 96.0408 19.007 95.9823C19.0588 95.9043 19.1029 95.8425 19.1367 95.758C19.1898 95.6194 19.2214 95.4694 19.23 95.316C19.2326 95.2835 19.2521 95.264 19.2521 95.2299C19.5296 89.3068 22.3153 84.8575 26.9127 83.3089C29.3781 82.4769 29.9357 83.59 31.7371 81.5409C32.4685 80.6975 31.9666 79.3146 31.0601 79.183C22.7368 77.9383 15.8504 85.7919 16.0527 96.2829C16.0708 97.4366 17.12 98.1988 17.854 97.3554ZM34.7381 97.2465L35.7782 96.0603C35.8287 96.0001 35.8495 95.9303 35.8884 95.8701C35.9364 95.7938 35.9844 95.7336 36.0168 95.6443C36.0694 95.507 36.1015 95.3589 36.1115 95.2071C36.114 95.1714 36.1309 95.147 36.1309 95.1161C36.4097 89.1914 39.1941 84.7438 43.7928 83.1951C46.2556 82.3599 46.8146 83.4714 48.6172 81.4206C49.3474 80.5854 48.8468 79.2025 47.9415 79.066C39.6156 77.8245 32.7305 85.6749 32.9328 96.174C32.9523 97.3196 34.0001 98.0834 34.7381 97.2465Z" fill="#18414F"/>
<path d="M34.563 83.525C39.84 87.4153 46.3516 85.8081 49.0984 79.937C51.8452 74.0756 49.8026 66.17 44.5204 62.2846C39.2447 58.3993 24.0038 53.5763 21.2506 59.4409C18.5025 65.312 29.286 79.6413 34.563 83.525Z" fill="#294751"/>
<path d="M33.318 48.113C32.8706 39.8207 25.1205 33.7318 15.9983 34.5053C6.88125 35.2804 -0.146518 42.627 0.306091 50.9178C0.75481 59.202 9.25194 79.0108 18.369 78.2373C27.499 77.4638 33.7733 56.3989 33.3232 48.113" fill="#114256"/>
<path d="M25.4188 41.3254C25.8598 41.1336 26.3007 40.9354 26.7455 40.7388C26.8091 40.7095 26.8493 40.6526 26.9038 40.6136C26.9738 40.5806 27.0391 40.5334 27.097 40.4739C27.1855 40.3705 27.2599 40.2497 27.3175 40.1164C27.3291 40.0871 27.3512 40.0741 27.3629 40.0465C29.4547 34.7246 33.3972 31.9751 38.1165 32.786C40.6454 33.2183 40.814 34.5134 43.1082 33.4961C44.042 33.0834 44.0095 31.5624 43.2172 31.0018C35.9313 25.8034 27.1541 29.6855 24.0844 39.4599C23.7472 40.5291 24.4786 41.7398 25.4188 41.3254ZM21.2559 23.5186L20.3442 24.8641C20.2975 24.9275 20.2443 24.9568 20.1976 25.0055C20.1393 25.0689 20.0887 25.1323 20.0225 25.1761C19.9141 25.2449 19.7969 25.2894 19.6763 25.3078C19.6516 25.311 19.6309 25.3338 19.6062 25.337C14.8908 25.8798 11.4359 29.5133 10.3492 35.3226C9.76426 38.4378 10.6708 39.0991 9.09637 41.4213C8.45312 42.3621 7.33003 41.7804 7.19515 40.6543C5.9281 30.2656 11.9625 21.385 20.3455 21.294C21.2585 21.281 21.8991 22.5696 21.2559 23.5186Z" fill="#114256"/>
<path d="M15.5754 54.5301C15.7881 58.4724 13.8532 61.8491 11.2594 62.0717C8.66955 62.2911 6.38835 59.2686 6.17696 55.3264C5.96297 51.3841 7.89532 48.0106 10.4878 47.7896C13.0815 47.5654 15.3601 50.583 15.5754 54.5301ZM27.5585 53.508C27.7725 57.4502 25.8389 60.8302 23.2451 61.0529C20.654 61.2722 18.378 58.253 18.1614 54.3124C17.9487 50.3636 19.8823 46.9917 22.4761 46.7707C25.0646 46.5514 27.3433 49.5657 27.5585 53.508Z" fill="#C68244"/>
<path d="M49.9634 101.173C49.6275 100.664 49.2864 100.157 48.9466 99.6466C48.8986 99.5703 48.8831 99.4874 48.848 99.411C48.8027 99.3151 48.7599 99.2404 48.7313 99.1413C48.6914 98.9749 48.6752 98.8011 48.6833 98.6278C48.6833 98.5936 48.6639 98.5644 48.6678 98.5303C49.0919 91.8613 46.5331 86.359 41.5894 83.7379C38.9425 82.3323 38.1838 83.4633 36.4279 80.8275C35.7107 79.7485 36.4421 78.3006 37.4706 78.3299C46.9144 78.559 53.6309 88.6519 52.1123 100.324C51.9437 101.6 50.6792 102.247 49.9634 101.173ZM65.1809 99.8725C64.845 99.3639 64.5065 98.8601 64.168 98.3515C64.1174 98.2719 64.1006 98.1923 64.0669 98.1143C64.0202 98.0216 63.9787 97.9436 63.9514 97.8413C63.9094 97.6772 63.8935 97.5044 63.9048 97.3326C63.9048 97.2985 63.884 97.2725 63.8879 97.2319C64.3094 90.5629 61.7507 85.0606 56.807 82.4411C54.16 81.0339 53.4001 82.1681 51.6454 79.5308C50.9334 78.4518 51.6636 77.0039 52.6894 77.0364C62.1332 77.259 68.8497 87.3551 67.3298 99.0275C67.1638 100.308 65.8981 100.955 65.1809 99.8725ZM77.9681 98.7935C77.6296 98.2849 77.2924 97.7795 76.9552 97.2693C76.9033 97.1929 76.8878 97.1116 76.8554 97.032C76.8113 96.9378 76.7659 96.8614 76.7386 96.759C76.6983 96.5945 76.6816 96.4222 76.6894 96.2504C76.6894 96.213 76.6725 96.187 76.6881 96.148C77.1056 89.4823 74.5521 83.9768 69.6058 81.3573C66.9615 79.9549 66.1989 81.0843 64.4456 78.4469C63.7297 77.3695 64.4611 75.9216 65.4844 75.9525C74.9334 76.1719 81.6499 86.268 80.1274 97.9436C79.9614 99.229 78.6995 99.8709 77.9797 98.7935" fill="#18414F"/>
</svg>
