<svg width="30" height="30" viewBox="0 0 30 30" fill="none" xmlns="http://www.w3.org/2000/svg">
<path d="M3.21429 0C1.43973 0 0 1.43973 0 3.21429V26.7857C0 28.5603 1.43973 30 3.21429 30H26.7857C28.5603 30 30 28.5603 30 26.7857V3.21429C30 1.43973 28.5603 0 26.7857 0H3.21429ZM9.83571 8.92192C11.1506 8.92192 12.3189 9.37654 13.1792 10.0584C13.9747 10.6913 14.3473 11.3245 14.6723 11.8927L12.4007 13.0277C12.2382 12.655 12.0427 12.2652 11.5405 11.8436C10.9882 11.4049 10.4371 11.2755 9.96522 11.2755C8.11527 11.2755 7.14134 12.996 7.14134 14.9108C7.14134 17.4269 8.42444 18.6755 9.96522 18.6755C11.4585 18.6755 12.0597 17.6369 12.4483 16.9723L14.7054 18.1246C14.2825 18.7892 13.8767 19.4394 12.9676 20.0711C12.4813 20.412 11.362 21.0781 9.77103 21.0781C6.73567 21.0781 4.28571 18.8712 4.28571 14.9913C4.28571 11.6005 6.59029 8.92192 9.83571 8.92192ZM14.8904 9.27864H17.9416L20.3109 17.4268L22.6631 9.2787H25.7143L21.738 20.7371H18.8176L14.8904 9.27864Z" fill="#889DA1"/>
</svg>
