<svg width="768" height="265" viewBox="0 0 768 265" fill="none" xmlns="http://www.w3.org/2000/svg">
<g filter="url(#filter0_i_40_826)">
<rect x="470" y="114" width="99" height="87" rx="8" stroke="#111D21" stroke-width="4"/>
</g>
<g clip-path="url(#clip0_40_826)">
<path d="M488.773 128.823H552.823V186.176H488.773V128.823Z" fill="#F7DF1E"/>
<path d="M505.614 176.752L510.516 174.095C511.461 175.597 512.322 176.867 514.385 176.867C516.363 176.867 517.61 176.174 517.61 173.48V155.154H523.629V173.556C523.629 179.138 519.975 181.679 514.643 181.679C509.828 181.679 507.033 179.446 505.614 176.751M526.898 176.174L531.799 173.633C533.09 175.52 534.766 176.906 537.733 176.906C540.227 176.906 541.817 175.789 541.817 174.249C541.817 172.401 540.183 171.747 537.432 170.669L535.927 170.091C531.585 168.436 528.704 166.357 528.704 161.968C528.704 157.926 532.144 154.846 537.518 154.846C541.345 154.846 544.096 156.039 546.074 159.158L541.387 161.853C540.355 160.197 539.238 159.543 537.518 159.543C535.755 159.543 534.637 160.544 534.637 161.853C534.637 163.47 535.755 164.125 538.334 165.126L539.839 165.703C544.956 167.667 547.836 169.668 547.836 174.172C547.836 179.024 543.58 181.68 537.862 181.68C532.272 181.68 528.661 179.293 526.898 176.174" fill="black"/>
</g>
<path d="M88.712 181.437L82.8773 128.441H146.988L141.146 181.429L114.894 187.324L88.712 181.437Z" fill="#E44F26"/>
<path d="M114.933 182.819L136.147 178.056L141.138 132.775H114.933V182.819Z" fill="#F1662A"/>
<path d="M114.933 152.429H104.313L103.58 145.774H114.933V139.273H94.8088L95.001 141.019L96.9718 158.93H114.933V152.429ZM114.933 169.31L114.896 169.318L105.959 167.365L105.388 162.181H97.3302L98.4545 172.384L114.896 176.081L114.933 176.073V169.31Z" fill="#EBEBEB"/>
<path d="M114.904 152.429V158.93H124.787L123.858 167.36L114.904 169.316V176.079L131.359 172.384L131.479 171.287L133.364 154.175L133.561 152.429H131.398H114.904ZM114.904 139.273V145.774H134.291L134.452 144.314L134.818 141.019L135.01 139.273H114.904Z" fill="white"/>
<g filter="url(#filter1_i_40_826)">
<rect x="65" y="114" width="99" height="87" rx="8" stroke="#111D21" stroke-width="4"/>
</g>
<g clip-path="url(#clip1_40_826)">
<path d="M249.457 191.359L220.925 185.968L214.567 137.427H284.433L278.068 185.961L249.457 191.359Z" fill="#264DE4"/>
<path d="M272.619 182.87L278.058 141.396H249.5V187.233L272.619 182.87Z" fill="#2965F1"/>
<path d="M229.143 159.399L229.927 165.352H249.5V159.399H229.143ZM227.568 147.349L228.363 153.303H249.5V147.349H227.568ZM249.5 174.861L249.462 174.868L239.721 173.077L239.098 168.329H230.318L231.543 177.677L249.46 181.062L249.5 181.055V174.861Z" fill="#EBEBEB"/>
<path d="M231.01 124.235H241.603V127.251H235.44V130.266H241.603V133.281H231.01V124.235ZM243.722 124.235H254.315V126.857H248.152V127.382H254.315V133.413H243.722V130.659H249.885V130.135H243.721L243.722 124.235ZM256.434 124.235H267.027V126.857H260.864V127.382H267.027V133.413H256.434V130.659H262.597V130.135H256.434L256.434 124.235Z" fill="black"/>
<path d="M269.801 159.399L271.379 147.349H249.47V153.303H261.794L260.998 159.399H249.47V165.353H260.24L259.225 173.074L249.469 174.866V181.059L267.4 177.677L267.532 176.671L269.587 160.998L269.801 159.399Z" fill="white"/>
</g>
<g filter="url(#filter2_i_40_826)">
<rect x="200" y="114" width="99" height="87" rx="8" stroke="#111D21" stroke-width="4"/>
</g>
<g filter="url(#filter3_i_40_826)">
<rect x="335" y="114" width="99" height="87" rx="8" stroke="#111D21" stroke-width="4"/>
</g>
<g clip-path="url(#clip2_40_826)">
<path d="M372.815 191.53C379.982 191.53 385.798 186.505 385.798 180.314V169.098H372.815C365.649 169.098 359.832 174.123 359.832 180.314C359.832 186.505 365.649 191.53 372.815 191.53Z" fill="#0ACF83"/>
<path d="M359.832 157.882C359.832 151.691 365.649 146.667 372.815 146.667H385.798V169.098H372.815C365.649 169.098 359.832 164.073 359.832 157.882Z" fill="#A259FF"/>
<path d="M359.832 135.451C359.832 129.26 365.649 124.235 372.815 124.235H385.798V146.667H372.815C365.649 146.667 359.832 141.642 359.832 135.451Z" fill="#F24E1E"/>
<path d="M385.798 124.235H398.782C405.948 124.235 411.765 129.26 411.765 135.451C411.765 141.642 405.948 146.667 398.782 146.667H385.798V124.235Z" fill="#FF7262"/>
<path d="M411.765 157.882C411.765 164.073 405.948 169.098 398.782 169.098C391.615 169.098 385.798 164.073 385.798 157.882C385.798 151.691 391.615 146.667 398.782 146.667C405.948 146.667 411.765 151.691 411.765 157.882Z" fill="#1ABCFE"/>
</g>
<g filter="url(#filter4_i_40_826)">
<rect x="605" y="114" width="99" height="87" rx="8" stroke="#111D21" stroke-width="4"/>
</g>
<path d="M654.933 124.235C649.818 124.235 644.753 125.026 640.027 126.562C635.302 128.098 631.008 130.349 627.391 133.187C620.087 138.919 615.983 146.693 615.983 154.799C615.983 168.309 627.162 179.77 642.625 183.835C644.572 184.08 645.195 183.132 645.195 182.307V177.142C634.406 178.975 632.108 173.046 632.108 173.046C630.317 169.501 627.785 168.553 627.785 168.553C624.24 166.658 628.058 166.719 628.058 166.719C631.952 166.933 634.017 169.867 634.017 169.867C637.405 174.513 643.131 173.138 645.351 172.404C645.702 170.417 646.714 169.073 647.805 168.309C639.158 167.544 630.083 164.916 630.083 153.271C630.083 149.879 631.563 147.158 634.095 144.988C633.705 144.224 632.342 141.046 634.484 136.919C634.484 136.919 637.756 136.094 645.195 140.037C648.272 139.365 651.622 139.028 654.933 139.028C658.243 139.028 661.593 139.365 664.67 140.037C672.109 136.094 675.381 136.919 675.381 136.919C677.523 141.046 676.16 144.224 675.771 144.988C678.302 147.158 679.783 149.879 679.783 153.271C679.783 164.947 670.668 167.514 661.983 168.278C663.385 169.225 664.67 171.09 664.67 173.932V182.307C664.67 183.132 665.293 184.11 667.28 183.835C682.743 179.739 693.882 168.309 693.882 154.799C693.882 150.786 692.875 146.811 690.917 143.103C688.96 139.395 686.091 136.025 682.474 133.187C678.857 130.349 674.564 128.098 669.838 126.562C665.113 125.026 660.048 124.235 654.933 124.235Z" fill="black"/>
<path d="M261.648 36.864C261.968 36.864 262.36 36.88 262.824 36.912C263.304 36.944 263.792 36.992 264.288 37.056C264.8 37.104 265.24 37.16 265.608 37.224C265.992 37.272 266.256 37.328 266.4 37.392L266.112 40.632H265.872C265.872 39.8 265.56 39.136 264.936 38.64C264.328 38.128 263.512 37.872 262.488 37.872C261.56 37.872 260.808 38.096 260.232 38.544C259.672 38.992 259.376 39.536 259.344 40.176C259.328 40.656 259.48 41.072 259.8 41.424C260.12 41.776 260.528 42.104 261.024 42.408L265.608 45.384C266.344 45.8 266.896 46.344 267.264 47.016C267.648 47.688 267.816 48.472 267.768 49.368C267.688 50.936 267.088 52.16 265.968 53.04C264.848 53.904 263.328 54.336 261.408 54.336C260.704 54.336 260.016 54.272 259.344 54.144C258.688 54.032 258.104 53.872 257.592 53.664C257.08 53.44 256.672 53.176 256.368 52.872C256.24 52.52 256.184 52.096 256.2 51.6C256.216 51.104 256.288 50.6 256.416 50.088C256.56 49.576 256.736 49.152 256.944 48.816H257.16C257.096 49.632 257.24 50.392 257.592 51.096C257.96 51.784 258.488 52.336 259.176 52.752C259.88 53.152 260.712 53.344 261.672 53.328C262.728 53.312 263.544 53.048 264.12 52.536C264.696 52.008 264.984 51.376 264.984 50.64C264.984 50.144 264.832 49.696 264.528 49.296C264.24 48.896 263.76 48.512 263.088 48.144L258.888 45.36C258.04 44.88 257.424 44.264 257.04 43.512C256.656 42.76 256.504 41.944 256.584 41.064C256.664 40.232 256.912 39.504 257.328 38.88C257.744 38.24 258.312 37.744 259.032 37.392C259.768 37.04 260.64 36.864 261.648 36.864ZM266.424 37.104L266.376 37.608H263.544V37.104H266.424ZM274.757 39.6V54H271.301V39.6H274.757ZM271.373 52.488V54H269.621V53.76C269.621 53.76 269.669 53.76 269.765 53.76C269.861 53.76 269.917 53.76 269.933 53.76C270.301 53.76 270.621 53.64 270.893 53.4C271.165 53.144 271.301 52.84 271.301 52.488H271.373ZM274.709 52.488H274.757C274.773 52.84 274.909 53.144 275.165 53.4C275.437 53.64 275.765 53.76 276.149 53.76C276.149 53.76 276.189 53.76 276.269 53.76C276.365 53.76 276.421 53.76 276.437 53.76V54H274.709V52.488ZM274.709 41.112V39.6H276.437L276.413 39.84C276.413 39.84 276.373 39.84 276.293 39.84C276.213 39.84 276.165 39.84 276.149 39.84C275.765 39.84 275.437 39.96 275.165 40.2C274.909 40.44 274.773 40.744 274.757 41.112H274.709ZM271.373 41.112H271.301C271.301 40.744 271.165 40.44 270.893 40.2C270.621 39.96 270.293 39.84 269.909 39.84C269.909 39.84 269.861 39.84 269.765 39.84C269.669 39.84 269.621 39.84 269.621 39.84V39.6H271.373V41.112ZM279.426 39.264L293.514 51.648L293.754 54.312L279.69 41.928L279.426 39.264ZM279.522 52.536V54H277.746V53.76C277.746 53.76 277.81 53.76 277.938 53.76C278.066 53.76 278.13 53.76 278.13 53.76C278.498 53.76 278.81 53.648 279.066 53.424C279.322 53.184 279.45 52.888 279.45 52.536H279.522ZM282.738 52.536C282.754 52.888 282.89 53.184 283.146 53.424C283.402 53.648 283.706 53.76 284.058 53.76C284.058 53.76 284.122 53.76 284.25 53.76C284.394 53.76 284.466 53.76 284.466 53.76V54H282.69V52.536H282.738ZM279.426 39.264L282.738 42.864V54H279.45V42C279.45 41.184 279.41 40.528 279.33 40.032C279.25 39.52 279.21 39.264 279.21 39.264H279.426ZM293.73 39.6V51.504C293.73 52.064 293.746 52.56 293.778 52.992C293.826 53.408 293.866 53.736 293.898 53.976C293.946 54.2 293.97 54.312 293.97 54.312H293.754L290.442 50.496V39.6H293.73ZM293.658 41.064V39.6H295.458V39.84C295.458 39.84 295.386 39.84 295.242 39.84C295.114 39.84 295.05 39.84 295.05 39.84C294.698 39.84 294.386 39.96 294.114 40.2C293.858 40.424 293.73 40.712 293.73 41.064H293.658ZM290.442 41.064C290.426 40.712 290.29 40.424 290.034 40.2C289.794 39.96 289.49 39.84 289.122 39.84C289.122 39.84 289.05 39.84 288.906 39.84C288.778 39.84 288.714 39.84 288.714 39.84V39.6H290.49V41.064H290.442ZM320.665 36.864L320.857 39.48L313.729 51.84C313.729 51.84 313.649 51.984 313.489 52.272C313.329 52.544 313.169 52.88 313.009 53.28C312.865 53.68 312.793 54.08 312.793 54.48H312.553L311.617 52.392L320.665 36.864ZM304.393 52.248V54H301.729V53.76C301.745 53.76 301.817 53.76 301.945 53.76C302.057 53.76 302.113 53.76 302.113 53.76C302.545 53.76 302.929 53.632 303.265 53.376C303.601 53.104 303.801 52.728 303.865 52.248H304.393ZM305.449 52.632C305.449 52.648 305.449 52.664 305.449 52.68C305.449 52.696 305.449 52.72 305.449 52.752C305.449 53.008 305.537 53.248 305.713 53.472C305.905 53.68 306.129 53.784 306.385 53.784H306.745V54H305.281V52.632H305.449ZM305.857 36.864H306.073L306.913 39.264L305.305 54H303.625L305.857 36.864ZM306.073 36.864L313.921 49.752L312.553 54.48L305.449 42.552L306.073 36.864ZM320.881 36.864L323.161 54H319.297L318.097 42.96L320.665 36.864H320.881ZM322.417 52.248H322.921C323.001 52.728 323.209 53.104 323.545 53.376C323.881 53.632 324.257 53.76 324.673 53.76C324.673 53.76 324.737 53.76 324.865 53.76C324.993 53.76 325.057 53.76 325.057 53.76V54H322.417V52.248ZM319.153 52.632H319.321V54H317.857V53.784H318.217C318.489 53.784 318.713 53.68 318.889 53.472C319.065 53.248 319.153 53.008 319.153 52.752C319.153 52.72 319.153 52.696 319.153 52.68C319.153 52.664 319.153 52.648 319.153 52.632ZM330.772 39.6V54H327.316V39.6H330.772ZM327.388 52.488V54H325.636V53.76C325.636 53.76 325.684 53.76 325.78 53.76C325.876 53.76 325.932 53.76 325.948 53.76C326.316 53.76 326.636 53.64 326.908 53.4C327.18 53.144 327.316 52.84 327.316 52.488H327.388ZM330.724 52.488H330.772C330.788 52.84 330.924 53.144 331.18 53.4C331.452 53.64 331.78 53.76 332.164 53.76C332.164 53.76 332.204 53.76 332.284 53.76C332.38 53.76 332.436 53.76 332.452 53.76V54H330.724V52.488ZM330.724 41.112V39.6H332.452L332.428 39.84C332.428 39.84 332.388 39.84 332.308 39.84C332.228 39.84 332.18 39.84 332.164 39.84C331.78 39.84 331.452 39.96 331.18 40.2C330.924 40.44 330.788 40.744 330.772 41.112H330.724ZM327.388 41.112H327.316C327.316 40.744 327.18 40.44 326.908 40.2C326.636 39.96 326.308 39.84 325.924 39.84C325.924 39.84 325.876 39.84 325.78 39.84C325.684 39.84 325.636 39.84 325.636 39.84V39.6H327.388V41.112ZM338.997 39.6V54H335.541V39.6H338.997ZM344.613 53.04L345.165 54H338.949V53.04H344.613ZM343.797 46.392V47.352H338.949V46.392H343.797ZM344.877 39.6V40.56H338.949V39.6H344.877ZM346.149 49.584L345.237 54H341.085L341.829 53.04C342.517 53.04 343.125 52.904 343.653 52.632C344.197 52.344 344.661 51.944 345.045 51.432C345.429 50.904 345.725 50.288 345.933 49.584H346.149ZM343.797 47.304V49.416H343.557V49.224C343.557 48.696 343.389 48.256 343.053 47.904C342.733 47.552 342.293 47.368 341.733 47.352V47.304H343.797ZM343.797 44.328V46.44H341.733V46.392C342.293 46.376 342.733 46.192 343.053 45.84C343.389 45.472 343.557 45.024 343.557 44.496V44.328H343.797ZM344.877 40.512V43.056H344.637V42.84C344.637 42.136 344.445 41.584 344.061 41.184C343.693 40.784 343.157 40.576 342.453 40.56V40.512H344.877ZM344.877 39.24V39.816L342.357 39.6C342.821 39.6 343.309 39.56 343.821 39.48C344.333 39.384 344.685 39.304 344.877 39.24ZM335.589 52.488L335.709 54H333.933V53.76C333.933 53.76 333.981 53.76 334.077 53.76C334.173 53.76 334.229 53.76 334.245 53.76C334.597 53.76 334.893 53.64 335.133 53.4C335.389 53.144 335.525 52.84 335.541 52.488H335.589ZM335.589 41.112H335.541C335.525 40.744 335.389 40.44 335.133 40.2C334.893 39.96 334.597 39.84 334.245 39.84C334.229 39.84 334.173 39.84 334.077 39.84C333.981 39.84 333.933 39.84 333.933 39.84V39.6H335.709L335.589 41.112ZM355.474 39.6C357.186 39.6 358.658 39.888 359.89 40.464C361.122 41.024 362.066 41.848 362.722 42.936C363.378 44.008 363.706 45.296 363.706 46.8C363.706 48.304 363.378 49.592 362.722 50.664C362.066 51.736 361.122 52.56 359.89 53.136C358.658 53.712 357.186 54 355.474 54H350.146L350.098 53.04C351.314 53.04 352.29 53.04 353.026 53.04C353.778 53.04 354.322 53.04 354.658 53.04C355.01 53.04 355.186 53.04 355.186 53.04C356.69 53.04 357.874 52.488 358.738 51.384C359.602 50.28 360.034 48.752 360.034 46.8C360.034 44.848 359.602 43.32 358.738 42.216C357.874 41.096 356.69 40.536 355.186 40.536C355.186 40.536 355.01 40.536 354.658 40.536C354.306 40.536 353.738 40.536 352.954 40.536C352.17 40.536 351.138 40.536 349.858 40.536V39.6H355.474ZM352.474 39.6V54H349.018V39.6H352.474ZM349.09 52.464V54H347.362V53.76C347.362 53.76 347.41 53.76 347.506 53.76C347.602 53.76 347.658 53.76 347.674 53.76C348.042 53.76 348.354 53.632 348.61 53.376C348.882 53.12 349.018 52.816 349.018 52.464H349.09ZM349.066 41.112H349.018C349.002 40.744 348.858 40.44 348.586 40.2C348.33 39.96 348.018 39.84 347.65 39.84C347.65 39.84 347.602 39.84 347.506 39.84C347.41 39.84 347.362 39.84 347.362 39.84V39.6H349.066V41.112ZM374.117 39.288C375.397 39.288 376.557 39.464 377.597 39.816C378.637 40.152 379.533 40.648 380.285 41.304C381.037 41.96 381.613 42.752 382.013 43.68C382.429 44.608 382.637 45.656 382.637 46.824C382.637 47.976 382.429 49.016 382.013 49.944C381.613 50.856 381.037 51.64 380.285 52.296C379.533 52.952 378.637 53.456 377.597 53.808C376.557 54.144 375.397 54.312 374.117 54.312C372.853 54.312 371.701 54.144 370.661 53.808C369.621 53.456 368.725 52.952 367.973 52.296C367.221 51.64 366.645 50.856 366.245 49.944C365.845 49.016 365.645 47.976 365.645 46.824C365.645 45.656 365.845 44.608 366.245 43.68C366.645 42.752 367.221 41.96 367.973 41.304C368.725 40.648 369.621 40.152 370.661 39.816C371.701 39.464 372.853 39.288 374.117 39.288ZM374.117 53.376C375.093 53.376 375.941 53.112 376.661 52.584C377.397 52.04 377.957 51.28 378.341 50.304C378.741 49.328 378.941 48.168 378.941 46.824C378.941 45.464 378.741 44.296 378.341 43.32C377.957 42.328 377.397 41.568 376.661 41.04C375.941 40.496 375.093 40.224 374.117 40.224C373.157 40.224 372.317 40.496 371.597 41.04C370.877 41.568 370.317 42.328 369.917 43.32C369.517 44.296 369.317 45.464 369.317 46.824C369.317 48.168 369.517 49.328 369.917 50.304C370.317 51.28 370.877 52.04 371.597 52.584C372.317 53.112 373.157 53.376 374.117 53.376ZM397.957 36.72L405.805 53.856H401.485L396.493 41.352L397.957 36.72ZM392.797 52.248C392.669 52.568 392.645 52.84 392.725 53.064C392.805 53.288 392.941 53.464 393.133 53.592C393.325 53.704 393.517 53.76 393.709 53.76H393.925V54H388.789V53.76C388.789 53.76 388.829 53.76 388.909 53.76C388.973 53.76 389.005 53.76 389.005 53.76C389.373 53.76 389.749 53.648 390.133 53.424C390.533 53.184 390.861 52.792 391.117 52.248H392.797ZM397.957 36.72L398.053 39.648L392.101 53.928H390.349L396.565 39.864C396.613 39.768 396.693 39.592 396.805 39.336C396.933 39.064 397.061 38.76 397.189 38.424C397.333 38.088 397.461 37.768 397.573 37.464C397.685 37.144 397.741 36.896 397.741 36.72H397.957ZM400.477 48.288V49.296H393.421V48.288H400.477ZM400.837 52.248H405.037C405.309 52.792 405.637 53.184 406.021 53.424C406.405 53.648 406.781 53.76 407.149 53.76C407.149 53.76 407.181 53.76 407.245 53.76C407.309 53.76 407.341 53.76 407.341 53.76V54H399.709V53.76H399.925C400.245 53.76 400.525 53.632 400.765 53.376C401.005 53.104 401.029 52.728 400.837 52.248ZM412.544 39.6V54H409.088V39.6H412.544ZM418.136 53.04L418.712 54H412.496V53.04H418.136ZM419.72 49.584L418.784 54H414.632L415.376 53.04C416.064 53.04 416.672 52.904 417.2 52.632C417.744 52.344 418.208 51.944 418.592 51.432C418.976 50.904 419.272 50.288 419.48 49.584H419.72ZM409.136 52.488L409.256 54H407.48V53.76C407.48 53.76 407.528 53.76 407.624 53.76C407.72 53.76 407.776 53.76 407.792 53.76C408.144 53.76 408.44 53.64 408.68 53.4C408.936 53.144 409.072 52.84 409.088 52.488H409.136ZM412.496 41.112V39.6H414.152V39.84C414.136 39.84 414.08 39.84 413.984 39.84C413.904 39.84 413.864 39.84 413.864 39.84C413.512 39.84 413.208 39.96 412.952 40.2C412.696 40.44 412.56 40.744 412.544 41.112H412.496ZM409.136 41.112H409.088C409.072 40.744 408.936 40.44 408.68 40.2C408.424 39.96 408.12 39.84 407.768 39.84C407.752 39.84 407.696 39.84 407.6 39.84C407.52 39.84 407.48 39.84 407.48 39.84V39.6H409.136V41.112ZM432.292 37.2V54H428.692V37.2H432.292ZM438.628 52.968L439.204 54H432.22V52.968H438.628ZM437.74 45.216V46.224H432.22V45.216H437.74ZM438.916 37.2V38.232H432.22V37.2H438.916ZM440.38 49.08L439.276 54H434.572L435.436 52.968C436.236 52.968 436.94 52.816 437.548 52.512C438.156 52.192 438.676 51.744 439.108 51.168C439.54 50.576 439.884 49.88 440.14 49.08H440.38ZM437.74 46.176V48.48H437.5V48.288C437.5 47.696 437.308 47.208 436.924 46.824C436.54 46.44 436.052 46.24 435.46 46.224V46.176H437.74ZM437.74 42.96V45.264H435.46V45.216C436.052 45.2 436.54 45 436.924 44.616C437.308 44.216 437.5 43.72 437.5 43.128V42.96H437.74ZM438.916 38.16V40.968H438.676V40.68C438.676 39.944 438.452 39.352 438.004 38.904C437.572 38.456 436.98 38.224 436.228 38.208V38.16H438.916ZM438.916 36.768V37.464L435.988 37.2C436.34 37.2 436.708 37.176 437.092 37.128C437.492 37.08 437.86 37.024 438.196 36.96C438.532 36.896 438.772 36.832 438.916 36.768ZM428.764 52.248V54H426.844V53.76C426.844 53.76 426.892 53.76 426.988 53.76C427.1 53.76 427.156 53.76 427.156 53.76C427.572 53.76 427.924 53.616 428.212 53.328C428.516 53.024 428.676 52.664 428.692 52.248H428.764ZM428.764 38.952H428.692C428.676 38.536 428.516 38.184 428.212 37.896C427.924 37.592 427.572 37.44 427.156 37.44C427.156 37.44 427.1 37.44 426.988 37.44C426.892 37.44 426.844 37.44 426.844 37.44V37.2H428.764V38.952ZM446.28 39.6L455.568 53.976H451.56L442.32 39.6H446.28ZM444.84 52.512C444.632 52.816 444.624 53.104 444.816 53.376C445.024 53.632 445.272 53.76 445.56 53.76C445.56 53.76 445.6 53.76 445.68 53.76C445.776 53.76 445.824 53.76 445.824 53.76V54H440.544V53.76H440.832C441.28 53.76 441.68 53.648 442.032 53.424C442.4 53.184 442.712 52.904 442.968 52.584L444.84 52.512ZM447.48 46.656L448.512 47.496L443.784 53.976L441.96 53.928L447.48 46.656ZM450.624 52.536L454.68 52.608C454.888 52.912 455.176 53.184 455.544 53.424C455.928 53.648 456.344 53.76 456.792 53.76H457.08V54H449.64V53.76C449.64 53.76 449.68 53.76 449.76 53.76C449.856 53.76 449.904 53.76 449.904 53.76C450.192 53.76 450.432 53.632 450.624 53.376C450.816 53.104 450.816 52.824 450.624 52.536ZM448.2 39.576V39.816C448.2 39.816 448.152 39.816 448.056 39.816C447.976 39.816 447.936 39.816 447.936 39.816C447.664 39.816 447.432 39.952 447.24 40.224C447.048 40.496 447.04 40.768 447.216 41.04L443.232 40.968C443.008 40.664 442.704 40.4 442.32 40.176C441.952 39.936 441.544 39.816 441.096 39.816H440.808V39.576H448.2ZM455.088 39.6L450.024 47.016L449.232 45.768L453.24 39.6H455.088ZM456.576 39.576V39.816H456.264C455.832 39.816 455.424 39.928 455.04 40.152C454.672 40.376 454.376 40.648 454.152 40.968L452.304 41.04C452.48 40.768 452.472 40.496 452.28 40.224C452.104 39.952 451.872 39.816 451.584 39.816C451.584 39.816 451.536 39.816 451.44 39.816C451.36 39.816 451.32 39.816 451.32 39.816V39.576H456.576ZM462.702 39.6V54H459.246V39.6H462.702ZM459.318 52.488V54H457.566V53.76C457.566 53.76 457.614 53.76 457.71 53.76C457.806 53.76 457.862 53.76 457.878 53.76C458.246 53.76 458.566 53.64 458.838 53.4C459.11 53.144 459.246 52.84 459.246 52.488H459.318ZM462.654 52.488H462.702C462.718 52.84 462.854 53.144 463.11 53.4C463.382 53.64 463.71 53.76 464.094 53.76C464.094 53.76 464.134 53.76 464.214 53.76C464.31 53.76 464.366 53.76 464.382 53.76V54H462.654V52.488ZM462.654 41.112V39.6H464.382L464.358 39.84C464.358 39.84 464.318 39.84 464.238 39.84C464.158 39.84 464.11 39.84 464.094 39.84C463.71 39.84 463.382 39.96 463.11 40.2C462.854 40.44 462.718 40.744 462.702 41.112H462.654ZM459.318 41.112H459.246C459.246 40.744 459.11 40.44 458.838 40.2C458.566 39.96 458.238 39.84 457.854 39.84C457.854 39.84 457.806 39.84 457.71 39.84C457.614 39.84 457.566 39.84 457.566 39.84V39.6H459.318V41.112ZM474.116 39.672V54H470.636V39.672H474.116ZM479.348 39.576V40.536H465.428V39.576H479.348ZM479.348 40.464V43.008H479.084V42.792C479.1 42.104 478.908 41.56 478.508 41.16C478.124 40.76 477.588 40.552 476.9 40.536V40.464H479.348ZM479.348 39.216V39.816L476.804 39.576C477.108 39.576 477.436 39.56 477.788 39.528C478.14 39.48 478.46 39.432 478.747 39.384C479.036 39.32 479.236 39.264 479.348 39.216ZM470.684 52.488V54H469.076V53.76C469.076 53.76 469.116 53.76 469.196 53.76C469.292 53.76 469.34 53.76 469.34 53.76C469.692 53.76 469.988 53.64 470.228 53.4C470.484 53.144 470.62 52.84 470.636 52.488H470.684ZM474.044 52.488H474.116C474.116 52.84 474.244 53.144 474.5 53.4C474.756 53.64 475.068 53.76 475.436 53.76C475.436 53.76 475.476 53.76 475.556 53.76C475.652 53.76 475.7 53.76 475.7 53.76V54H474.044V52.488ZM467.876 40.464V40.536C467.172 40.552 466.628 40.76 466.244 41.16C465.876 41.56 465.692 42.104 465.692 42.792V43.008H465.428V40.464H467.876ZM465.428 39.216C465.572 39.248 465.78 39.296 466.052 39.36C466.34 39.424 466.652 39.48 466.988 39.528C467.34 39.56 467.66 39.576 467.948 39.576L465.428 39.816V39.216ZM488.656 39.288C489.936 39.288 491.096 39.464 492.136 39.816C493.176 40.152 494.072 40.648 494.824 41.304C495.576 41.96 496.152 42.752 496.552 43.68C496.968 44.608 497.176 45.656 497.176 46.824C497.176 47.976 496.968 49.016 496.552 49.944C496.152 50.856 495.576 51.64 494.824 52.296C494.072 52.952 493.176 53.456 492.136 53.808C491.096 54.144 489.936 54.312 488.656 54.312C487.392 54.312 486.24 54.144 485.2 53.808C484.16 53.456 483.264 52.952 482.512 52.296C481.76 51.64 481.184 50.856 480.784 49.944C480.384 49.016 480.184 47.976 480.184 46.824C480.184 45.656 480.384 44.608 480.784 43.68C481.184 42.752 481.76 41.96 482.512 41.304C483.264 40.648 484.16 40.152 485.2 39.816C486.24 39.464 487.392 39.288 488.656 39.288ZM488.656 53.376C489.632 53.376 490.48 53.112 491.2 52.584C491.936 52.04 492.496 51.28 492.88 50.304C493.28 49.328 493.48 48.168 493.48 46.824C493.48 45.464 493.28 44.296 492.88 43.32C492.496 42.328 491.936 41.568 491.2 41.04C490.48 40.496 489.632 40.224 488.656 40.224C487.696 40.224 486.856 40.496 486.136 41.04C485.416 41.568 484.856 42.328 484.456 43.32C484.056 44.296 483.856 45.464 483.856 46.824C483.856 48.168 484.056 49.328 484.456 50.304C484.856 51.28 485.416 52.04 486.136 52.584C486.856 53.112 487.696 53.376 488.656 53.376Z" fill="#111D21"/>
<rect x="2.5" y="2.5" width="763" height="260" rx="49.5" fill="#D9D9D9" fill-opacity="0.13" stroke="#7F939C" stroke-width="5"/>
<defs>
<filter id="filter0_i_40_826" x="468" y="112" width="103" height="95" filterUnits="userSpaceOnUse" color-interpolation-filters="sRGB">
<feFlood flood-opacity="0" result="BackgroundImageFix"/>
<feBlend mode="normal" in="SourceGraphic" in2="BackgroundImageFix" result="shape"/>
<feColorMatrix in="SourceAlpha" type="matrix" values="0 0 0 0 0 0 0 0 0 0 0 0 0 0 0 0 0 0 127 0" result="hardAlpha"/>
<feOffset dy="4"/>
<feGaussianBlur stdDeviation="2"/>
<feComposite in2="hardAlpha" operator="arithmetic" k2="-1" k3="1"/>
<feColorMatrix type="matrix" values="0 0 0 0 0 0 0 0 0 0 0 0 0 0 0 0 0 0 0.25 0"/>
<feBlend mode="normal" in2="shape" result="effect1_innerShadow_40_826"/>
</filter>
<filter id="filter1_i_40_826" x="63" y="112" width="103" height="95" filterUnits="userSpaceOnUse" color-interpolation-filters="sRGB">
<feFlood flood-opacity="0" result="BackgroundImageFix"/>
<feBlend mode="normal" in="SourceGraphic" in2="BackgroundImageFix" result="shape"/>
<feColorMatrix in="SourceAlpha" type="matrix" values="0 0 0 0 0 0 0 0 0 0 0 0 0 0 0 0 0 0 127 0" result="hardAlpha"/>
<feOffset dy="4"/>
<feGaussianBlur stdDeviation="2"/>
<feComposite in2="hardAlpha" operator="arithmetic" k2="-1" k3="1"/>
<feColorMatrix type="matrix" values="0 0 0 0 0 0 0 0 0 0 0 0 0 0 0 0 0 0 0.25 0"/>
<feBlend mode="normal" in2="shape" result="effect1_innerShadow_40_826"/>
</filter>
<filter id="filter2_i_40_826" x="198" y="112" width="103" height="95" filterUnits="userSpaceOnUse" color-interpolation-filters="sRGB">
<feFlood flood-opacity="0" result="BackgroundImageFix"/>
<feBlend mode="normal" in="SourceGraphic" in2="BackgroundImageFix" result="shape"/>
<feColorMatrix in="SourceAlpha" type="matrix" values="0 0 0 0 0 0 0 0 0 0 0 0 0 0 0 0 0 0 127 0" result="hardAlpha"/>
<feOffset dy="4"/>
<feGaussianBlur stdDeviation="2"/>
<feComposite in2="hardAlpha" operator="arithmetic" k2="-1" k3="1"/>
<feColorMatrix type="matrix" values="0 0 0 0 0 0 0 0 0 0 0 0 0 0 0 0 0 0 0.25 0"/>
<feBlend mode="normal" in2="shape" result="effect1_innerShadow_40_826"/>
</filter>
<filter id="filter3_i_40_826" x="333" y="112" width="103" height="95" filterUnits="userSpaceOnUse" color-interpolation-filters="sRGB">
<feFlood flood-opacity="0" result="BackgroundImageFix"/>
<feBlend mode="normal" in="SourceGraphic" in2="BackgroundImageFix" result="shape"/>
<feColorMatrix in="SourceAlpha" type="matrix" values="0 0 0 0 0 0 0 0 0 0 0 0 0 0 0 0 0 0 127 0" result="hardAlpha"/>
<feOffset dy="4"/>
<feGaussianBlur stdDeviation="2"/>
<feComposite in2="hardAlpha" operator="arithmetic" k2="-1" k3="1"/>
<feColorMatrix type="matrix" values="0 0 0 0 0 0 0 0 0 0 0 0 0 0 0 0 0 0 0.25 0"/>
<feBlend mode="normal" in2="shape" result="effect1_innerShadow_40_826"/>
</filter>
<filter id="filter4_i_40_826" x="603" y="112" width="103" height="95" filterUnits="userSpaceOnUse" color-interpolation-filters="sRGB">
<feFlood flood-opacity="0" result="BackgroundImageFix"/>
<feBlend mode="normal" in="SourceGraphic" in2="BackgroundImageFix" result="shape"/>
<feColorMatrix in="SourceAlpha" type="matrix" values="0 0 0 0 0 0 0 0 0 0 0 0 0 0 0 0 0 0 127 0" result="hardAlpha"/>
<feOffset dy="4"/>
<feGaussianBlur stdDeviation="2"/>
<feComposite in2="hardAlpha" operator="arithmetic" k2="-1" k3="1"/>
<feColorMatrix type="matrix" values="0 0 0 0 0 0 0 0 0 0 0 0 0 0 0 0 0 0 0.25 0"/>
<feBlend mode="normal" in2="shape" result="effect1_innerShadow_40_826"/>
</filter>
<clipPath id="clip0_40_826">
<rect width="64.0504" height="57.3529" fill="white" transform="translate(488.773 128.823)"/>
</clipPath>
<clipPath id="clip1_40_826">
<rect width="70.1092" height="67.2941" fill="white" transform="translate(214.445 124.235)"/>
</clipPath>
<clipPath id="clip2_40_826">
<rect width="51.9328" height="67.2941" fill="white" transform="translate(359.832 124.235)"/>
</clipPath>
</defs>
</svg>
