<svg width="768" height="265" viewBox="0 0 768 265" fill="none" xmlns="http://www.w3.org/2000/svg">
<g filter="url(#filter0_i_38_791)">
<rect x="579" y="84" width="115" height="115" rx="8" stroke="#111D21" stroke-width="4"/>
</g>
<path d="M102.706 172.803L95.965 103.5H170.035L163.285 172.792L132.955 180.5L102.706 172.803Z" fill="#E44F26"/>
<path d="M133 174.609L157.51 168.381L163.276 109.168H133V174.609Z" fill="#F1662A"/>
<path d="M133 134.869H120.73L119.884 126.166H133V117.665H109.75L109.972 119.948L112.249 143.37H133V134.869ZM133 156.944L132.958 156.955L122.632 154.4L121.972 147.621H112.663L113.962 160.964L132.958 165.799L133 165.788V156.944Z" fill="#EBEBEB"/>
<path d="M132.967 134.869V143.37H144.385L143.311 154.394L132.967 156.952V165.796L151.978 160.964L152.116 159.529L154.294 137.152L154.522 134.869H152.023H132.967ZM132.967 117.665V126.166H155.365L155.551 124.257L155.974 119.948L156.196 117.665H132.967Z" fill="white"/>
<g filter="url(#filter1_i_38_791)">
<rect x="75" y="84" width="115" height="115" rx="8" stroke="#111D21" stroke-width="4"/>
</g>
<g clip-path="url(#clip0_38_791)">
<path d="M300.451 185.778L267.487 178.727L260.141 115.25H340.859L333.506 178.718L300.451 185.778Z" fill="#264DE4"/>
<path d="M327.21 174.676L333.494 120.44H300.5V180.381L327.21 174.676Z" fill="#2965F1"/>
<path d="M276.981 143.983L277.887 151.768H300.5V143.983H276.981ZM275.161 128.226L276.08 136.011H300.5V128.226H275.161ZM300.5 164.202L300.456 164.211L289.202 161.87L288.482 155.661H278.338L279.754 167.885L300.454 172.312L300.5 172.302V164.202Z" fill="#EBEBEB"/>
<path d="M279.138 98H291.376V101.943H284.256V105.886H291.377V109.829H279.138V98ZM293.824 98H306.063V101.429H298.942V102.115H306.063V110.001H293.825V106.4H300.945V105.715H293.824L293.824 98ZM308.511 98H320.75V101.429H313.629V102.115H320.75V110.001H308.511V106.4H315.632V105.715H308.511L308.511 98Z" fill="black"/>
<path d="M323.954 143.983L325.778 128.226H300.465V136.011H314.704L313.785 143.983H300.465V151.768H312.908L311.735 161.865L300.465 164.209V172.308L321.181 167.885L321.333 166.57L323.708 146.074L323.954 143.983Z" fill="white"/>
</g>
<g filter="url(#filter2_i_38_791)">
<rect x="243" y="84" width="115" height="115" rx="8" stroke="#111D21" stroke-width="4"/>
</g>
<g filter="url(#filter3_i_38_791)">
<rect x="411" y="84" width="115" height="115" rx="8" stroke="#111D21" stroke-width="4"/>
</g>
<g clip-path="url(#clip1_38_791)">
<path d="M455 186C463.28 186 470 179.429 470 171.333V156.667H455C446.72 156.667 440 163.237 440 171.333C440 179.429 446.72 186 455 186Z" fill="#0ACF83"/>
<path d="M440 142C440 133.904 446.72 127.333 455 127.333H470V156.667H455C446.72 156.667 440 150.096 440 142Z" fill="#A259FF"/>
<path d="M440 112.667C440 104.571 446.72 98 455 98H470V127.333H455C446.72 127.333 440 120.763 440 112.667Z" fill="#F24E1E"/>
<path d="M470 98H485C493.28 98 500 104.571 500 112.667C500 120.763 493.28 127.333 485 127.333H470V98Z" fill="#FF7262"/>
<path d="M500 142C500 150.096 493.28 156.667 485 156.667C476.72 156.667 470 150.096 470 142C470 133.904 476.72 127.333 485 127.333C493.28 127.333 500 133.904 500 142Z" fill="#1ABCFE"/>
</g>
<path d="M637 98C631.091 98 625.239 99.0338 619.779 101.042C614.32 103.051 609.359 105.995 605.18 109.706C596.741 117.202 592 127.368 592 137.968C592 155.634 604.915 170.622 622.78 175.938C625.03 176.258 625.75 175.019 625.75 173.94V167.185C613.285 169.583 610.63 161.829 610.63 161.829C608.56 157.193 605.635 155.954 605.635 155.954C601.54 153.476 605.95 153.556 605.95 153.556C610.45 153.836 612.835 157.673 612.835 157.673C616.75 163.748 623.365 161.949 625.93 160.99C626.335 158.392 627.505 156.633 628.765 155.634C618.775 154.635 608.29 151.198 608.29 135.97C608.29 131.533 610 127.976 612.925 125.138C612.475 124.139 610.9 119.983 613.375 114.587C613.375 114.587 617.155 113.508 625.75 118.664C629.305 117.784 633.175 117.345 637 117.345C640.825 117.345 644.695 117.784 648.25 118.664C656.845 113.508 660.625 114.587 660.625 114.587C663.1 119.983 661.525 124.139 661.075 125.138C664 127.976 665.71 131.533 665.71 135.97C665.71 151.238 655.18 154.595 645.145 155.594C646.765 156.833 648.25 159.271 648.25 162.988V173.94C648.25 175.019 648.97 176.298 651.265 175.938C669.13 170.582 682 155.634 682 137.968C682 132.72 680.836 127.522 678.575 122.673C676.313 117.824 672.998 113.418 668.82 109.706C664.641 105.995 659.68 103.051 654.221 101.042C648.761 99.0338 642.909 98 637 98Z" fill="black"/>
<path d="M299.083 35.344H302.995L306.835 46.192L305.395 52.432L299.083 35.344ZM311.083 34.816L311.515 37.192L306.187 49.768C306.187 49.768 306.139 49.904 306.043 50.176C305.947 50.448 305.851 50.784 305.755 51.184C305.675 51.584 305.627 52 305.611 52.432H305.395L304.723 49.576L310.867 34.816H311.083ZM311.083 34.84L316.363 46.504L315.211 52.432L309.427 39.64L311.083 34.84ZM320.371 35.344L315.859 49.768C315.859 49.768 315.819 49.912 315.739 50.2C315.659 50.472 315.587 50.816 315.523 51.232C315.459 51.632 315.435 52.032 315.451 52.432H315.211L314.539 50.056L318.739 35.344H320.371ZM318.283 36.928C318.411 36.448 318.371 36.08 318.163 35.824C317.955 35.568 317.691 35.44 317.371 35.44H317.155V35.2H322.171V35.44C322.171 35.44 322.139 35.44 322.075 35.44C322.011 35.44 321.979 35.44 321.979 35.44C321.611 35.44 321.211 35.56 320.779 35.8C320.347 36.024 320.043 36.4 319.867 36.928H318.283ZM303.595 36.928H299.683C299.475 36.4 299.163 36.024 298.747 35.8C298.331 35.56 297.939 35.44 297.571 35.44C297.571 35.44 297.539 35.44 297.475 35.44C297.411 35.44 297.379 35.44 297.379 35.44V35.2H304.699V35.44H304.483C304.179 35.44 303.907 35.568 303.667 35.824C303.443 36.08 303.419 36.448 303.595 36.928ZM327.163 37.6V52H323.707V37.6H327.163ZM323.779 50.488V52H322.027V51.76C322.027 51.76 322.075 51.76 322.171 51.76C322.267 51.76 322.323 51.76 322.339 51.76C322.707 51.76 323.027 51.64 323.299 51.4C323.571 51.144 323.707 50.84 323.707 50.488H323.779ZM327.115 50.488H327.163C327.179 50.84 327.315 51.144 327.571 51.4C327.843 51.64 328.171 51.76 328.555 51.76C328.555 51.76 328.595 51.76 328.675 51.76C328.771 51.76 328.827 51.76 328.843 51.76V52H327.115V50.488ZM327.115 39.112V37.6H328.843L328.819 37.84C328.819 37.84 328.779 37.84 328.699 37.84C328.619 37.84 328.571 37.84 328.555 37.84C328.171 37.84 327.843 37.96 327.571 38.2C327.315 38.44 327.179 38.744 327.163 39.112H327.115ZM323.779 39.112H323.707C323.707 38.744 323.571 38.44 323.299 38.2C323.027 37.96 322.699 37.84 322.315 37.84C322.315 37.84 322.267 37.84 322.171 37.84C322.075 37.84 322.027 37.84 322.027 37.84V37.6H323.779V39.112ZM338.412 37.6C340.124 37.6 341.596 37.888 342.828 38.464C344.06 39.024 345.004 39.848 345.66 40.936C346.316 42.008 346.644 43.296 346.644 44.8C346.644 46.304 346.316 47.592 345.66 48.664C345.004 49.736 344.06 50.56 342.828 51.136C341.596 51.712 340.124 52 338.412 52H333.084L333.036 51.04C334.252 51.04 335.228 51.04 335.964 51.04C336.716 51.04 337.26 51.04 337.596 51.04C337.948 51.04 338.124 51.04 338.124 51.04C339.628 51.04 340.812 50.488 341.676 49.384C342.54 48.28 342.972 46.752 342.972 44.8C342.972 42.848 342.54 41.32 341.676 40.216C340.812 39.096 339.628 38.536 338.124 38.536C338.124 38.536 337.948 38.536 337.596 38.536C337.244 38.536 336.676 38.536 335.892 38.536C335.108 38.536 334.076 38.536 332.796 38.536V37.6H338.412ZM335.412 37.6V52H331.956V37.6H335.412ZM332.028 50.464V52H330.3V51.76C330.3 51.76 330.348 51.76 330.444 51.76C330.54 51.76 330.596 51.76 330.612 51.76C330.98 51.76 331.292 51.632 331.548 51.376C331.82 51.12 331.956 50.816 331.956 50.464H332.028ZM332.004 39.112H331.956C331.94 38.744 331.796 38.44 331.524 38.2C331.268 37.96 330.956 37.84 330.588 37.84C330.588 37.84 330.54 37.84 330.444 37.84C330.348 37.84 330.3 37.84 330.3 37.84V37.6H332.004V39.112ZM353.06 37.6V52H349.604V37.6H353.06ZM358.676 51.04L359.228 52H353.012V51.04H358.676ZM357.86 44.392V45.352H353.012V44.392H357.86ZM358.94 37.6V38.56H353.012V37.6H358.94ZM360.212 47.584L359.3 52H355.148L355.892 51.04C356.58 51.04 357.188 50.904 357.716 50.632C358.26 50.344 358.724 49.944 359.108 49.432C359.492 48.904 359.788 48.288 359.996 47.584H360.212ZM357.86 45.304V47.416H357.62V47.224C357.62 46.696 357.452 46.256 357.116 45.904C356.796 45.552 356.356 45.368 355.796 45.352V45.304H357.86ZM357.86 42.328V44.44H355.796V44.392C356.356 44.376 356.796 44.192 357.116 43.84C357.452 43.472 357.62 43.024 357.62 42.496V42.328H357.86ZM358.94 38.512V41.056H358.7V40.84C358.7 40.136 358.508 39.584 358.124 39.184C357.756 38.784 357.22 38.576 356.516 38.56V38.512H358.94ZM358.94 37.24V37.816L356.42 37.6C356.884 37.6 357.372 37.56 357.884 37.48C358.396 37.384 358.748 37.304 358.94 37.24ZM349.652 50.488L349.772 52H347.996V51.76C347.996 51.76 348.044 51.76 348.14 51.76C348.236 51.76 348.292 51.76 348.308 51.76C348.66 51.76 348.956 51.64 349.196 51.4C349.452 51.144 349.588 50.84 349.604 50.488H349.652ZM349.652 39.112H349.604C349.588 38.744 349.452 38.44 349.196 38.2C348.956 37.96 348.66 37.84 348.308 37.84C348.292 37.84 348.236 37.84 348.14 37.84C348.044 37.84 347.996 37.84 347.996 37.84V37.6H349.772L349.652 39.112ZM366.417 37.6H369.009C369.665 37.6 370.305 37.672 370.929 37.816C371.553 37.944 372.113 38.16 372.609 38.464C373.105 38.752 373.497 39.152 373.785 39.664C374.089 40.16 374.241 40.784 374.241 41.536C374.241 42.096 374.121 42.656 373.881 43.216C373.657 43.76 373.297 44.232 372.801 44.632C372.321 45.032 371.689 45.296 370.905 45.424C371.369 45.568 371.809 45.848 372.225 46.264C372.657 46.68 372.993 47.072 373.233 47.44C373.297 47.568 373.409 47.776 373.569 48.064C373.729 48.336 373.929 48.656 374.169 49.024C374.425 49.376 374.689 49.744 374.961 50.128C375.281 50.56 375.561 50.896 375.801 51.136C376.041 51.36 376.289 51.52 376.545 51.616C376.801 51.712 377.097 51.76 377.433 51.76V52H375.417C374.553 52 373.817 51.936 373.209 51.808C372.617 51.68 372.097 51.448 371.649 51.112C371.217 50.76 370.817 50.288 370.449 49.696C370.305 49.488 370.153 49.24 369.993 48.952C369.833 48.648 369.673 48.344 369.513 48.04C369.353 47.736 369.209 47.44 369.081 47.152C368.969 46.864 368.889 46.624 368.841 46.432C368.633 45.92 368.393 45.552 368.121 45.328C367.865 45.088 367.625 44.968 367.401 44.968V44.752C367.401 44.752 367.457 44.752 367.569 44.752C367.681 44.752 367.825 44.752 368.001 44.752C368.337 44.752 368.665 44.696 368.985 44.584C369.321 44.456 369.625 44.224 369.897 43.888C370.169 43.536 370.369 43.024 370.497 42.352C370.529 42.256 370.553 42.12 370.569 41.944C370.601 41.768 370.609 41.568 370.593 41.344C370.561 40.752 370.449 40.28 370.257 39.928C370.081 39.56 369.857 39.288 369.585 39.112C369.313 38.92 369.033 38.792 368.745 38.728C368.473 38.648 368.233 38.608 368.025 38.608C367.721 38.592 367.441 38.592 367.185 38.608C366.945 38.608 366.761 38.6 366.633 38.584C366.617 38.584 366.593 38.504 366.561 38.344C366.529 38.168 366.497 38 366.465 37.84C366.433 37.68 366.417 37.6 366.417 37.6ZM366.657 37.6V52H363.177V37.6H366.657ZM363.249 50.488L363.345 52H361.617V51.76C361.633 51.76 361.673 51.76 361.737 51.76C361.817 51.76 361.873 51.76 361.905 51.76C362.257 51.76 362.553 51.64 362.793 51.4C363.049 51.144 363.185 50.84 363.201 50.488H363.249ZM363.249 39.088H363.201C363.185 38.72 363.049 38.424 362.793 38.2C362.553 37.96 362.265 37.84 361.929 37.84C361.881 37.84 361.817 37.84 361.737 37.84C361.673 37.84 361.633 37.84 361.617 37.84V37.6H363.345L363.249 39.088ZM366.609 50.488H366.657C366.657 50.888 366.793 51.2 367.065 51.424C367.353 51.648 367.657 51.76 367.977 51.76C367.977 51.76 368.009 51.76 368.073 51.76C368.137 51.76 368.185 51.76 368.217 51.76V52H366.489L366.609 50.488ZM383.318 35.344H387.23L391.07 46.192L389.63 52.432L383.318 35.344ZM395.318 34.816L395.75 37.192L390.422 49.768C390.422 49.768 390.374 49.904 390.278 50.176C390.182 50.448 390.086 50.784 389.99 51.184C389.91 51.584 389.862 52 389.846 52.432H389.63L388.958 49.576L395.102 34.816H395.318ZM395.318 34.84L400.598 46.504L399.446 52.432L393.662 39.64L395.318 34.84ZM404.606 35.344L400.094 49.768C400.094 49.768 400.054 49.912 399.974 50.2C399.894 50.472 399.822 50.816 399.758 51.232C399.694 51.632 399.67 52.032 399.686 52.432H399.446L398.774 50.056L402.974 35.344H404.606ZM402.518 36.928C402.646 36.448 402.606 36.08 402.398 35.824C402.19 35.568 401.926 35.44 401.606 35.44H401.39V35.2H406.406V35.44C406.406 35.44 406.374 35.44 406.31 35.44C406.246 35.44 406.214 35.44 406.214 35.44C405.846 35.44 405.446 35.56 405.014 35.8C404.582 36.024 404.278 36.4 404.102 36.928H402.518ZM387.83 36.928H383.918C383.71 36.4 383.398 36.024 382.982 35.8C382.566 35.56 382.174 35.44 381.806 35.44C381.806 35.44 381.774 35.44 381.71 35.44C381.646 35.44 381.614 35.44 381.614 35.44V35.2H388.934V35.44H388.718C388.414 35.44 388.142 35.568 387.902 35.824C387.678 36.08 387.654 36.448 387.83 36.928ZM414.054 37.288C415.334 37.288 416.494 37.464 417.534 37.816C418.574 38.152 419.47 38.648 420.222 39.304C420.974 39.96 421.55 40.752 421.95 41.68C422.366 42.608 422.574 43.656 422.574 44.824C422.574 45.976 422.366 47.016 421.95 47.944C421.55 48.856 420.974 49.64 420.222 50.296C419.47 50.952 418.574 51.456 417.534 51.808C416.494 52.144 415.334 52.312 414.054 52.312C412.79 52.312 411.638 52.144 410.598 51.808C409.558 51.456 408.662 50.952 407.91 50.296C407.158 49.64 406.582 48.856 406.182 47.944C405.782 47.016 405.582 45.976 405.582 44.824C405.582 43.656 405.782 42.608 406.182 41.68C406.582 40.752 407.158 39.96 407.91 39.304C408.662 38.648 409.558 38.152 410.598 37.816C411.638 37.464 412.79 37.288 414.054 37.288ZM414.054 51.376C415.03 51.376 415.878 51.112 416.598 50.584C417.334 50.04 417.894 49.28 418.278 48.304C418.678 47.328 418.878 46.168 418.878 44.824C418.878 43.464 418.678 42.296 418.278 41.32C417.894 40.328 417.334 39.568 416.598 39.04C415.878 38.496 415.03 38.224 414.054 38.224C413.094 38.224 412.254 38.496 411.534 39.04C410.814 39.568 410.254 40.328 409.854 41.32C409.454 42.296 409.254 43.464 409.254 44.824C409.254 46.168 409.454 47.328 409.854 48.304C410.254 49.28 410.814 50.04 411.534 50.584C412.254 51.112 413.094 51.376 414.054 51.376ZM428.901 37.6H431.493C432.149 37.6 432.789 37.672 433.413 37.816C434.037 37.944 434.597 38.16 435.093 38.464C435.589 38.752 435.981 39.152 436.269 39.664C436.573 40.16 436.725 40.784 436.725 41.536C436.725 42.096 436.605 42.656 436.365 43.216C436.141 43.76 435.781 44.232 435.285 44.632C434.805 45.032 434.173 45.296 433.389 45.424C433.853 45.568 434.293 45.848 434.709 46.264C435.141 46.68 435.477 47.072 435.717 47.44C435.781 47.568 435.893 47.776 436.053 48.064C436.213 48.336 436.413 48.656 436.653 49.024C436.909 49.376 437.173 49.744 437.445 50.128C437.765 50.56 438.045 50.896 438.285 51.136C438.525 51.36 438.773 51.52 439.029 51.616C439.285 51.712 439.581 51.76 439.917 51.76V52H437.901C437.037 52 436.301 51.936 435.693 51.808C435.101 51.68 434.581 51.448 434.133 51.112C433.701 50.76 433.301 50.288 432.933 49.696C432.789 49.488 432.637 49.24 432.477 48.952C432.317 48.648 432.157 48.344 431.997 48.04C431.837 47.736 431.693 47.44 431.565 47.152C431.453 46.864 431.373 46.624 431.325 46.432C431.117 45.92 430.877 45.552 430.605 45.328C430.349 45.088 430.109 44.968 429.885 44.968V44.752C429.885 44.752 429.941 44.752 430.053 44.752C430.165 44.752 430.309 44.752 430.485 44.752C430.821 44.752 431.149 44.696 431.469 44.584C431.805 44.456 432.109 44.224 432.381 43.888C432.653 43.536 432.853 43.024 432.981 42.352C433.013 42.256 433.037 42.12 433.053 41.944C433.085 41.768 433.093 41.568 433.077 41.344C433.045 40.752 432.933 40.28 432.741 39.928C432.565 39.56 432.341 39.288 432.069 39.112C431.797 38.92 431.517 38.792 431.229 38.728C430.957 38.648 430.717 38.608 430.509 38.608C430.205 38.592 429.925 38.592 429.669 38.608C429.429 38.608 429.245 38.6 429.117 38.584C429.101 38.584 429.077 38.504 429.045 38.344C429.013 38.168 428.981 38 428.949 37.84C428.917 37.68 428.901 37.6 428.901 37.6ZM429.141 37.6V52H425.661V37.6H429.141ZM425.733 50.488L425.829 52H424.101V51.76C424.117 51.76 424.157 51.76 424.221 51.76C424.301 51.76 424.357 51.76 424.389 51.76C424.741 51.76 425.037 51.64 425.277 51.4C425.533 51.144 425.669 50.84 425.685 50.488H425.733ZM425.733 39.088H425.685C425.669 38.72 425.533 38.424 425.277 38.2C425.037 37.96 424.749 37.84 424.413 37.84C424.365 37.84 424.301 37.84 424.221 37.84C424.157 37.84 424.117 37.84 424.101 37.84V37.6H425.829L425.733 39.088ZM429.093 50.488H429.141C429.141 50.888 429.277 51.2 429.549 51.424C429.837 51.648 430.141 51.76 430.461 51.76C430.461 51.76 430.493 51.76 430.557 51.76C430.621 51.76 430.669 51.76 430.701 51.76V52H428.973L429.093 50.488ZM444.794 37.6V52H441.338V37.6H444.794ZM450.386 51.04L450.962 52H444.746V51.04H450.386ZM451.97 47.584L451.034 52H446.882L447.626 51.04C448.314 51.04 448.922 50.904 449.45 50.632C449.994 50.344 450.458 49.944 450.842 49.432C451.226 48.904 451.522 48.288 451.73 47.584H451.97ZM441.386 50.488L441.506 52H439.73V51.76C439.73 51.76 439.778 51.76 439.874 51.76C439.97 51.76 440.026 51.76 440.042 51.76C440.394 51.76 440.69 51.64 440.93 51.4C441.186 51.144 441.322 50.84 441.338 50.488H441.386ZM444.746 39.112V37.6H446.402V37.84C446.386 37.84 446.33 37.84 446.234 37.84C446.154 37.84 446.114 37.84 446.114 37.84C445.762 37.84 445.458 37.96 445.202 38.2C444.946 38.44 444.81 38.744 444.794 39.112H444.746ZM441.386 39.112H441.338C441.322 38.744 441.186 38.44 440.93 38.2C440.674 37.96 440.37 37.84 440.018 37.84C440.002 37.84 439.946 37.84 439.85 37.84C439.77 37.84 439.73 37.84 439.73 37.84V37.6H441.386V39.112ZM460.756 37.6C462.468 37.6 463.94 37.888 465.172 38.464C466.404 39.024 467.348 39.848 468.004 40.936C468.66 42.008 468.988 43.296 468.988 44.8C468.988 46.304 468.66 47.592 468.004 48.664C467.348 49.736 466.404 50.56 465.172 51.136C463.94 51.712 462.468 52 460.756 52H455.428L455.38 51.04C456.596 51.04 457.572 51.04 458.308 51.04C459.06 51.04 459.604 51.04 459.94 51.04C460.292 51.04 460.468 51.04 460.468 51.04C461.972 51.04 463.156 50.488 464.02 49.384C464.884 48.28 465.316 46.752 465.316 44.8C465.316 42.848 464.884 41.32 464.02 40.216C463.156 39.096 461.972 38.536 460.468 38.536C460.468 38.536 460.292 38.536 459.94 38.536C459.588 38.536 459.02 38.536 458.236 38.536C457.452 38.536 456.42 38.536 455.14 38.536V37.6H460.756ZM457.756 37.6V52H454.3V37.6H457.756ZM454.372 50.464V52H452.644V51.76C452.644 51.76 452.692 51.76 452.788 51.76C452.884 51.76 452.94 51.76 452.956 51.76C453.324 51.76 453.636 51.632 453.892 51.376C454.164 51.12 454.3 50.816 454.3 50.464H454.372ZM454.348 39.112H454.3C454.284 38.744 454.14 38.44 453.868 38.2C453.612 37.96 453.3 37.84 452.932 37.84C452.932 37.84 452.884 37.84 452.788 37.84C452.692 37.84 452.644 37.84 452.644 37.84V37.6H454.348V39.112Z" fill="#111D21"/>
<rect x="2.5" y="2.5" width="763" height="260" rx="49.5" fill="#D9D9D9" fill-opacity="0.13" stroke="#7F939C" stroke-width="5"/>
<rect x="2.5" y="2.5" width="763" height="260" rx="49.5" fill="#D9D9D9" fill-opacity="0.13" stroke="#7F939C" stroke-width="5"/>
<defs>
<filter id="filter0_i_38_791" x="577" y="82" width="119" height="123" filterUnits="userSpaceOnUse" color-interpolation-filters="sRGB">
<feFlood flood-opacity="0" result="BackgroundImageFix"/>
<feBlend mode="normal" in="SourceGraphic" in2="BackgroundImageFix" result="shape"/>
<feColorMatrix in="SourceAlpha" type="matrix" values="0 0 0 0 0 0 0 0 0 0 0 0 0 0 0 0 0 0 127 0" result="hardAlpha"/>
<feOffset dy="4"/>
<feGaussianBlur stdDeviation="2"/>
<feComposite in2="hardAlpha" operator="arithmetic" k2="-1" k3="1"/>
<feColorMatrix type="matrix" values="0 0 0 0 0 0 0 0 0 0 0 0 0 0 0 0 0 0 0.25 0"/>
<feBlend mode="normal" in2="shape" result="effect1_innerShadow_38_791"/>
</filter>
<filter id="filter1_i_38_791" x="73" y="82" width="119" height="123" filterUnits="userSpaceOnUse" color-interpolation-filters="sRGB">
<feFlood flood-opacity="0" result="BackgroundImageFix"/>
<feBlend mode="normal" in="SourceGraphic" in2="BackgroundImageFix" result="shape"/>
<feColorMatrix in="SourceAlpha" type="matrix" values="0 0 0 0 0 0 0 0 0 0 0 0 0 0 0 0 0 0 127 0" result="hardAlpha"/>
<feOffset dy="4"/>
<feGaussianBlur stdDeviation="2"/>
<feComposite in2="hardAlpha" operator="arithmetic" k2="-1" k3="1"/>
<feColorMatrix type="matrix" values="0 0 0 0 0 0 0 0 0 0 0 0 0 0 0 0 0 0 0.25 0"/>
<feBlend mode="normal" in2="shape" result="effect1_innerShadow_38_791"/>
</filter>
<filter id="filter2_i_38_791" x="241" y="82" width="119" height="123" filterUnits="userSpaceOnUse" color-interpolation-filters="sRGB">
<feFlood flood-opacity="0" result="BackgroundImageFix"/>
<feBlend mode="normal" in="SourceGraphic" in2="BackgroundImageFix" result="shape"/>
<feColorMatrix in="SourceAlpha" type="matrix" values="0 0 0 0 0 0 0 0 0 0 0 0 0 0 0 0 0 0 127 0" result="hardAlpha"/>
<feOffset dy="4"/>
<feGaussianBlur stdDeviation="2"/>
<feComposite in2="hardAlpha" operator="arithmetic" k2="-1" k3="1"/>
<feColorMatrix type="matrix" values="0 0 0 0 0 0 0 0 0 0 0 0 0 0 0 0 0 0 0.25 0"/>
<feBlend mode="normal" in2="shape" result="effect1_innerShadow_38_791"/>
</filter>
<filter id="filter3_i_38_791" x="409" y="82" width="119" height="123" filterUnits="userSpaceOnUse" color-interpolation-filters="sRGB">
<feFlood flood-opacity="0" result="BackgroundImageFix"/>
<feBlend mode="normal" in="SourceGraphic" in2="BackgroundImageFix" result="shape"/>
<feColorMatrix in="SourceAlpha" type="matrix" values="0 0 0 0 0 0 0 0 0 0 0 0 0 0 0 0 0 0 127 0" result="hardAlpha"/>
<feOffset dy="4"/>
<feGaussianBlur stdDeviation="2"/>
<feComposite in2="hardAlpha" operator="arithmetic" k2="-1" k3="1"/>
<feColorMatrix type="matrix" values="0 0 0 0 0 0 0 0 0 0 0 0 0 0 0 0 0 0 0.25 0"/>
<feBlend mode="normal" in2="shape" result="effect1_innerShadow_38_791"/>
</filter>
<clipPath id="clip0_38_791">
<rect width="81" height="88" fill="white" transform="translate(260 98)"/>
</clipPath>
<clipPath id="clip1_38_791">
<rect width="60" height="88" fill="white" transform="translate(440 98)"/>
</clipPath>
</defs>
</svg>
